<svg width="192" height="192" viewBox="0 0 192 192" fill="none" xmlns="http://www.w3.org/2000/svg">
<g clip-path="url(#clip0_405_708)">
<path d="M192 0H0V192H192V0Z" fill="#000AC2"/>
<mask id="mask0_405_708" style="mask-type:alpha" maskUnits="userSpaceOnUse" x="0" y="0" width="192" height="192">
<path d="M192 0H0V192H192V0Z" fill="#D9D9D9"/>
</mask>
<g mask="url(#mask0_405_708)">
<path d="M152.965 56.1526C157.927 55.3255 162.166 55.4289 165.681 56.4628C169.196 57.4966 171.884 59.2541 173.745 61.7354C175.606 64.2166 176.743 67.3181 177.157 71.04C177.57 74.5551 177.157 78.2769 175.916 82.2055C173.435 90.4763 169.196 97.2997 163.2 102.676C157.204 107.845 150.38 111.774 142.73 114.462C135.286 117.15 127.429 118.597 119.158 118.804C110.887 118.804 103.237 117.666 96.2068 115.392C90.4172 113.738 85.9717 113.324 82.8702 114.151C79.7686 114.978 76.2535 117.77 72.3249 122.526C66.3286 129.762 60.6425 137.413 55.2665 145.477C49.8905 153.334 44.5145 161.191 39.1385 169.049C37.8979 171.116 36.0369 174.631 33.5557 179.594C31.0745 184.35 28.3865 189.002 25.4917 193.551C22.3902 198.1 19.1852 201.718 15.8769 204.406C12.3618 207.301 8.95016 207.818 5.64185 205.957C3.36738 204.716 2.12677 203.269 1.92 201.615C1.50646 199.961 1.60984 198.203 2.23015 196.342C2.85046 194.688 3.78092 193.034 5.02154 191.38C6.05539 189.519 7.08923 187.865 8.12308 186.417C11.4314 181.662 15.7735 175.045 21.1495 166.567C26.3188 158.09 32.1083 148.889 38.5182 138.964C44.928 129.039 51.648 118.804 58.6782 108.258C65.7083 97.7132 72.5317 87.9951 79.1483 79.104C85.9717 70.0061 92.3815 62.2523 98.3778 55.8425C104.581 49.4326 109.854 45.2972 114.196 43.4363C116.677 42.4025 118.951 42.0923 121.019 42.5058C123.087 42.7126 124.741 44.16 125.982 46.848C126.809 48.9157 126.085 51.1902 123.81 53.6714C121.743 56.1526 119.055 58.944 115.746 62.0455C112.438 65.1471 108.923 68.5588 105.201 72.2806C101.686 76.0025 98.9982 80.0345 97.1372 84.3766C100.239 82.3089 104.271 79.7243 109.233 76.6228C114.402 73.5212 119.675 70.6265 125.051 67.9385C130.634 65.0437 135.906 62.5625 140.869 60.4948C145.831 58.2203 149.863 56.7729 152.965 56.1526ZM96.2068 104.226C102.203 105.467 108.199 105.881 114.196 105.467C120.399 105.054 126.188 103.71 131.564 101.435C136.94 99.1606 141.696 95.9557 145.831 91.8203C150.174 87.6849 153.585 82.5157 156.066 76.3126C157.514 72.1772 156.066 70.1095 151.724 70.1095C148.209 70.1095 143.66 71.4535 138.078 74.1415C132.495 76.6228 126.912 79.6209 121.329 83.136C115.746 86.6511 110.577 90.3729 105.822 94.3015C101.273 98.2301 98.0677 101.538 96.2068 104.226Z" fill="white"/>
</g>
</g>
<defs>
<clipPath id="clip0_405_708">
<rect width="192" height="192" fill="white"/>
</clipPath>
</defs>
</svg>
